<svg xmlns="http://www.w3.org/2000/svg" xmlns:xlink="http://www.w3.org/1999/xlink" width="1024" zoomAndPan="magnify" viewBox="0 0 768 775.92" height="1024" preserveAspectRatio="xMidYMid meet" version="1.0"><defs><g/></defs><g fill="#f3f2fa" fill-opacity="1"><g transform="translate(237.598093, 471.001463)"><g><path d="M 183.59375 -273.453125 C 192.1875 -273.453125 201.140625 -273.019531 210.453125 -272.15625 C 219.773438 -271.300781 228.59375 -270.015625 236.90625 -268.296875 C 245.21875 -266.578125 252.238281 -264.425781 257.96875 -261.84375 C 260.550781 -260.976562 262.195312 -259.898438 262.90625 -258.609375 C 263.625 -257.328125 264.128906 -255.109375 264.421875 -251.953125 L 270.015625 -192.1875 C 270.015625 -191.332031 269.296875 -190.757812 267.859375 -190.46875 C 266.429688 -190.1875 265.425781 -190.617188 264.84375 -191.765625 C 256.820312 -214.972656 245.429688 -232.882812 230.671875 -245.5 C 215.910156 -258.113281 197.921875 -264.421875 176.703125 -264.421875 C 157.210938 -264.421875 139.800781 -259.1875 124.46875 -248.71875 C 109.132812 -238.257812 97.09375 -223.425781 88.34375 -204.21875 C 79.601562 -185.019531 75.234375 -162.09375 75.234375 -135.4375 C 75.234375 -115.375 77.8125 -97.242188 82.96875 -81.046875 C 88.132812 -64.847656 95.445312 -51.015625 104.90625 -39.546875 C 114.363281 -28.085938 125.539062 -19.273438 138.4375 -13.109375 C 151.34375 -6.953125 165.535156 -3.875 181.015625 -3.875 C 201.359375 -3.875 218.191406 -9.390625 231.515625 -20.421875 C 244.847656 -31.453125 257.394531 -49.007812 269.15625 -73.09375 C 269.726562 -73.945312 270.65625 -74.226562 271.9375 -73.9375 C 273.226562 -73.65625 273.875 -73.085938 273.875 -72.234375 L 267.4375 -18.921875 C 267.144531 -15.484375 266.640625 -13.257812 265.921875 -12.25 C 265.203125 -11.25 263.554688 -10.175781 260.984375 -9.03125 C 247.222656 -4.15625 233.535156 -0.570312 219.921875 1.71875 C 206.304688 4.007812 193.335938 5.15625 181.015625 5.15625 C 150.054688 5.15625 122.535156 -0.644531 98.453125 -12.25 C 74.378906 -23.863281 55.460938 -40.0625 41.703125 -60.84375 C 27.941406 -81.625 21.0625 -105.484375 21.0625 -132.421875 C 21.0625 -153.054688 25.144531 -172.046875 33.3125 -189.390625 C 41.488281 -206.734375 52.957031 -221.640625 67.71875 -234.109375 C 82.476562 -246.578125 99.742188 -256.25 119.515625 -263.125 C 139.296875 -270.007812 160.65625 -273.453125 183.59375 -273.453125 Z M 183.59375 -273.453125 "/></g></g></g></svg>