<svg xmlns="http://www.w3.org/2000/svg" xmlns:xlink="http://www.w3.org/1999/xlink" width="1024" zoomAndPan="magnify" viewBox="0 0 768 775.92" height="1024" preserveAspectRatio="xMidYMid meet" version="1.0"><defs><g/></defs><g fill="#f3f2fa" fill-opacity="1"><g transform="translate(311.122736, 471.001419)"><g><path d="M 128.125 -268.71875 C 128.988281 -268.71875 129.421875 -267.859375 129.421875 -266.140625 C 129.421875 -264.421875 128.988281 -263.5625 128.125 -263.5625 C 120.957031 -263.5625 115.507812 -262.703125 111.78125 -260.984375 C 108.0625 -259.265625 105.628906 -256.253906 104.484375 -251.953125 C 103.335938 -247.648438 102.765625 -241.34375 102.765625 -233.03125 L 102.765625 1.71875 C 102.765625 33.820312 94.804688 58.898438 78.890625 76.953125 C 62.984375 95.015625 40.84375 104.046875 12.46875 104.046875 C 1.863281 104.046875 -6.945312 101.820312 -13.96875 97.375 C -20.988281 92.9375 -24.5 86.5625 -24.5 78.25 C -24.5 73.09375 -22.78125 68.148438 -19.34375 63.421875 C -15.90625 58.691406 -10.175781 56.328125 -2.15625 56.328125 C 4.726562 56.328125 10.03125 58.257812 13.75 62.125 C 17.476562 66 20.414062 70.515625 22.5625 75.671875 C 24.71875 80.828125 26.726562 85.335938 28.59375 89.203125 C 30.457031 93.078125 33.109375 95.015625 36.546875 95.015625 C 42.566406 95.015625 47.007812 90.210938 49.875 80.609375 C 52.738281 71.015625 54.171875 54.75 54.171875 31.8125 L 54.171875 -233.890625 C 54.171875 -242.203125 53.3125 -248.4375 51.59375 -252.59375 C 49.875 -256.75 46.429688 -259.613281 41.265625 -261.1875 C 36.109375 -262.769531 28.375 -263.5625 18.0625 -263.5625 C 17.488281 -263.5625 17.203125 -264.421875 17.203125 -266.140625 C 17.203125 -267.859375 17.488281 -268.71875 18.0625 -268.71875 C 26.945312 -268.71875 36.40625 -268.503906 46.4375 -268.078125 C 56.46875 -267.648438 66.929688 -267.4375 77.828125 -267.4375 C 87.859375 -267.4375 97.097656 -267.648438 105.546875 -268.078125 C 114.003906 -268.503906 121.53125 -268.71875 128.125 -268.71875 Z M 128.125 -268.71875 "/></g></g></g></svg>