<svg xmlns="http://www.w3.org/2000/svg" xmlns:xlink="http://www.w3.org/1999/xlink" width="1024" zoomAndPan="magnify" viewBox="0 0 768 767.999994" height="1024" preserveAspectRatio="xMidYMid meet" version="1.0"><defs><g/></defs><g fill="#f3f2fa" fill-opacity="1"><g transform="translate(219.738273, 520.499994)"><g><path d="M 233.484375 -233.0625 C 233.484375 -241.375 232.695312 -247.679688 231.125 -251.984375 C 229.550781 -256.285156 226.179688 -259.296875 221.015625 -261.015625 C 215.859375 -262.734375 208.117188 -263.59375 197.796875 -263.59375 C 196.941406 -263.59375 196.515625 -264.453125 196.515625 -266.171875 C 196.515625 -267.890625 196.941406 -268.75 197.796875 -268.75 C 205.253906 -268.75 213.785156 -268.53125 223.390625 -268.09375 C 232.992188 -267.664062 244.382812 -267.453125 257.5625 -267.453125 C 267.882812 -267.453125 278.132812 -267.664062 288.3125 -268.09375 C 298.488281 -268.53125 307.304688 -268.75 314.765625 -268.75 C 315.617188 -268.75 316.046875 -267.890625 316.046875 -266.171875 C 316.046875 -264.453125 315.617188 -263.59375 314.765625 -263.59375 C 305.296875 -263.59375 298.125 -262.800781 293.25 -261.21875 C 288.382812 -259.644531 285.160156 -256.78125 283.578125 -252.625 C 282.003906 -248.46875 281.21875 -242.234375 281.21875 -233.921875 L 281.21875 -34.828125 C 281.21875 -26.515625 282.003906 -20.207031 283.578125 -15.90625 C 285.160156 -11.601562 288.382812 -8.734375 293.25 -7.296875 C 298.125 -5.867188 305.296875 -5.15625 314.765625 -5.15625 C 315.617188 -5.15625 316.046875 -4.296875 316.046875 -2.578125 C 316.046875 -0.859375 315.617188 0 314.765625 0 C 307.304688 0 298.488281 -0.140625 288.3125 -0.421875 C 278.132812 -0.710938 267.882812 -0.859375 257.5625 -0.859375 C 244.382812 -0.859375 232.992188 -0.710938 223.390625 -0.421875 C 213.785156 -0.140625 205.253906 0 197.796875 0 C 196.941406 0 196.515625 -0.859375 196.515625 -2.578125 C 196.515625 -4.296875 196.941406 -5.15625 197.796875 -5.15625 C 208.117188 -5.15625 215.859375 -5.867188 221.015625 -7.296875 C 226.179688 -8.734375 229.550781 -11.601562 231.125 -15.90625 C 232.695312 -20.207031 233.484375 -26.515625 233.484375 -34.828125 Z M 69.234375 -133.734375 L 69.234375 -145.765625 L 255.421875 -145.765625 L 255.421875 -133.734375 Z M 46.875 -34.828125 L 46.875 -233.921875 C 46.875 -242.234375 46.082031 -248.46875 44.5 -252.625 C 42.925781 -256.78125 39.773438 -259.644531 35.046875 -261.21875 C 30.316406 -262.800781 23.222656 -263.59375 13.765625 -263.59375 C 12.898438 -263.59375 12.46875 -264.453125 12.46875 -266.171875 C 12.46875 -267.890625 12.898438 -268.75 13.765625 -268.75 C 21.210938 -268.75 29.664062 -268.53125 39.125 -268.09375 C 48.582031 -267.664062 58.472656 -267.453125 68.796875 -267.453125 C 81.984375 -267.453125 93.519531 -267.664062 103.40625 -268.09375 C 113.300781 -268.53125 122.265625 -268.75 130.296875 -268.75 C 130.867188 -268.75 131.15625 -267.890625 131.15625 -266.171875 C 131.15625 -264.453125 130.867188 -263.59375 130.296875 -263.59375 C 120.253906 -263.59375 112.65625 -262.734375 107.5 -261.015625 C 102.34375 -259.296875 98.898438 -256.285156 97.171875 -251.984375 C 95.453125 -247.679688 94.59375 -241.375 94.59375 -233.0625 L 94.59375 -34.828125 C 94.59375 -26.515625 95.453125 -20.207031 97.171875 -15.90625 C 98.898438 -11.601562 102.34375 -8.734375 107.5 -7.296875 C 112.65625 -5.867188 120.253906 -5.15625 130.296875 -5.15625 C 130.867188 -5.15625 131.15625 -4.296875 131.15625 -2.578125 C 131.15625 -0.859375 130.867188 0 130.296875 0 C 121.972656 0 112.9375 -0.140625 103.1875 -0.421875 C 93.445312 -0.710938 81.984375 -0.859375 68.796875 -0.859375 C 58.472656 -0.859375 48.4375 -0.710938 38.6875 -0.421875 C 28.945312 -0.140625 20.351562 0 12.90625 0 C 12.332031 0 12.046875 -0.859375 12.046875 -2.578125 C 12.046875 -4.296875 12.332031 -5.15625 12.90625 -5.15625 C 22.644531 -5.15625 29.878906 -5.867188 34.609375 -7.296875 C 39.335938 -8.734375 42.5625 -11.601562 44.28125 -15.90625 C 46.007812 -20.207031 46.875 -26.515625 46.875 -34.828125 Z M 46.875 -34.828125 "/></g></g></g></svg>