<svg xmlns="http://www.w3.org/2000/svg" xmlns:xlink="http://www.w3.org/1999/xlink" width="1024" zoomAndPan="magnify" viewBox="0 0 768 767.999994" height="1024" preserveAspectRatio="xMidYMid meet" version="1.0"><defs><g/><clipPath id="760e8adcb7"><rect x="0" width="756" y="0" height="522"/></clipPath></defs><g transform="matrix(1, 0, 0, 1, 12, 46)"><g clip-path="url(#760e8adcb7)"><g fill="#f3f2fa" fill-opacity="1"><g transform="translate(1.432269, 398.086507)"><g><path d="M 183.453125 -273.234375 C 192.046875 -273.234375 200.992188 -272.800781 210.296875 -271.9375 C 219.609375 -271.082031 228.414062 -269.796875 236.71875 -268.078125 C 245.03125 -266.367188 252.050781 -264.222656 257.78125 -261.640625 C 260.351562 -260.785156 262 -259.710938 262.71875 -258.421875 C 263.4375 -257.128906 263.9375 -254.910156 264.21875 -251.765625 L 269.796875 -192.046875 C 269.796875 -191.179688 269.082031 -190.601562 267.65625 -190.3125 C 266.226562 -190.03125 265.226562 -190.460938 264.65625 -191.609375 C 256.632812 -214.804688 245.25 -232.707031 230.5 -245.3125 C 215.75 -257.914062 197.773438 -264.21875 176.578125 -264.21875 C 157.097656 -264.21875 139.695312 -258.988281 124.375 -248.53125 C 109.050781 -238.082031 97.019531 -223.257812 88.28125 -204.0625 C 79.550781 -184.875 75.1875 -161.960938 75.1875 -135.328125 C 75.1875 -115.285156 77.765625 -97.171875 82.921875 -80.984375 C 88.078125 -64.796875 95.378906 -50.972656 104.828125 -39.515625 C 114.273438 -28.066406 125.441406 -19.257812 138.328125 -13.09375 C 151.222656 -6.9375 165.40625 -3.859375 180.875 -3.859375 C 201.207031 -3.859375 218.03125 -9.375 231.34375 -20.40625 C 244.664062 -31.4375 257.195312 -48.976562 268.9375 -73.03125 C 269.507812 -73.894531 270.441406 -74.179688 271.734375 -73.890625 C 273.023438 -73.609375 273.671875 -73.035156 273.671875 -72.171875 L 267.234375 -18.90625 C 266.941406 -15.46875 266.4375 -13.242188 265.71875 -12.234375 C 265.007812 -11.234375 263.363281 -10.160156 260.78125 -9.015625 C 247.03125 -4.148438 233.351562 -0.570312 219.75 1.71875 C 206.144531 4.007812 193.1875 5.15625 180.875 5.15625 C 149.9375 5.15625 122.4375 -0.640625 98.375 -12.234375 C 74.320312 -23.835938 55.421875 -40.019531 41.671875 -60.78125 C 27.921875 -81.550781 21.046875 -105.398438 21.046875 -132.328125 C 21.046875 -152.941406 25.128906 -171.910156 33.296875 -189.234375 C 41.460938 -206.566406 52.921875 -221.460938 67.671875 -233.921875 C 82.421875 -246.390625 99.675781 -256.054688 119.4375 -262.921875 C 139.195312 -269.796875 160.535156 -273.234375 183.453125 -273.234375 Z M 183.453125 -273.234375 "/></g></g></g><g fill="#f3f2fa" fill-opacity="1"><g transform="translate(414.304002, 398.086507)"><g><path d="M 233.28125 -232.859375 C 233.28125 -241.160156 232.492188 -247.457031 230.921875 -251.75 C 229.347656 -256.050781 225.984375 -259.0625 220.828125 -260.78125 C 215.671875 -262.5 207.9375 -263.359375 197.625 -263.359375 C 196.769531 -263.359375 196.34375 -264.21875 196.34375 -265.9375 C 196.34375 -267.65625 196.769531 -268.515625 197.625 -268.515625 C 205.070312 -268.515625 213.59375 -268.300781 223.1875 -267.875 C 232.78125 -267.445312 244.164062 -267.234375 257.34375 -267.234375 C 267.65625 -267.234375 277.894531 -267.445312 288.0625 -267.875 C 298.226562 -268.300781 307.035156 -268.515625 314.484375 -268.515625 C 315.347656 -268.515625 315.78125 -267.65625 315.78125 -265.9375 C 315.78125 -264.21875 315.347656 -263.359375 314.484375 -263.359375 C 305.035156 -263.359375 297.875 -262.570312 293 -261 C 288.132812 -259.425781 284.910156 -256.5625 283.328125 -252.40625 C 281.753906 -248.25 280.96875 -242.019531 280.96875 -233.71875 L 280.96875 -34.796875 C 280.96875 -26.492188 281.753906 -20.191406 283.328125 -15.890625 C 284.910156 -11.597656 288.132812 -8.734375 293 -7.296875 C 297.875 -5.867188 305.035156 -5.15625 314.484375 -5.15625 C 315.347656 -5.15625 315.78125 -4.296875 315.78125 -2.578125 C 315.78125 -0.859375 315.347656 0 314.484375 0 C 307.035156 0 298.226562 -0.140625 288.0625 -0.421875 C 277.894531 -0.710938 267.65625 -0.859375 257.34375 -0.859375 C 244.164062 -0.859375 232.78125 -0.710938 223.1875 -0.421875 C 213.59375 -0.140625 205.070312 0 197.625 0 C 196.769531 0 196.34375 -0.859375 196.34375 -2.578125 C 196.34375 -4.296875 196.769531 -5.15625 197.625 -5.15625 C 207.9375 -5.15625 215.671875 -5.867188 220.828125 -7.296875 C 225.984375 -8.734375 229.347656 -11.597656 230.921875 -15.890625 C 232.492188 -20.191406 233.28125 -26.492188 233.28125 -34.796875 Z M 69.171875 -133.609375 L 69.171875 -145.640625 L 255.203125 -145.640625 L 255.203125 -133.609375 Z M 46.828125 -34.796875 L 46.828125 -233.71875 C 46.828125 -242.019531 46.039062 -248.25 44.46875 -252.40625 C 42.894531 -256.5625 39.742188 -259.425781 35.015625 -261 C 30.285156 -262.570312 23.195312 -263.359375 13.75 -263.359375 C 12.882812 -263.359375 12.453125 -264.21875 12.453125 -265.9375 C 12.453125 -267.65625 12.882812 -268.515625 13.75 -268.515625 C 21.195312 -268.515625 29.644531 -268.300781 39.09375 -267.875 C 48.550781 -267.445312 58.429688 -267.234375 68.734375 -267.234375 C 81.910156 -267.234375 93.4375 -267.445312 103.3125 -267.875 C 113.195312 -268.300781 122.148438 -268.515625 130.171875 -268.515625 C 130.742188 -268.515625 131.03125 -267.65625 131.03125 -265.9375 C 131.03125 -264.21875 130.742188 -263.359375 130.171875 -263.359375 C 120.148438 -263.359375 112.5625 -262.5 107.40625 -260.78125 C 102.25 -259.0625 98.8125 -256.050781 97.09375 -251.75 C 95.375 -247.457031 94.515625 -241.160156 94.515625 -232.859375 L 94.515625 -34.796875 C 94.515625 -26.492188 95.375 -20.191406 97.09375 -15.890625 C 98.8125 -11.597656 102.25 -8.734375 107.40625 -7.296875 C 112.5625 -5.867188 120.148438 -5.15625 130.171875 -5.15625 C 130.742188 -5.15625 131.03125 -4.296875 131.03125 -2.578125 C 131.03125 -0.859375 130.742188 0 130.171875 0 C 121.867188 0 112.847656 -0.140625 103.109375 -0.421875 C 93.367188 -0.710938 81.910156 -0.859375 68.734375 -0.859375 C 58.429688 -0.859375 48.410156 -0.710938 38.671875 -0.421875 C 28.929688 -0.140625 20.335938 0 12.890625 0 C 12.316406 0 12.03125 -0.859375 12.03125 -2.578125 C 12.03125 -4.296875 12.316406 -5.15625 12.890625 -5.15625 C 22.628906 -5.15625 29.859375 -5.867188 34.578125 -7.296875 C 39.304688 -8.734375 42.53125 -11.597656 44.25 -15.890625 C 45.96875 -20.191406 46.828125 -26.492188 46.828125 -34.796875 Z M 46.828125 -34.796875 "/></g></g></g></g></g><g fill="#f3f2fa" fill-opacity="1"><g transform="translate(299.141607, 569.949966)"><g><path d="M 128.140625 -268.75 C 129.003906 -268.75 129.4375 -267.890625 129.4375 -266.171875 C 129.4375 -264.453125 129.003906 -263.59375 128.140625 -263.59375 C 120.972656 -263.59375 115.523438 -262.734375 111.796875 -261.015625 C 108.066406 -259.296875 105.628906 -256.285156 104.484375 -251.984375 C 103.335938 -247.679688 102.765625 -241.375 102.765625 -233.0625 L 102.765625 1.71875 C 102.765625 33.820312 94.8125 58.90625 78.90625 76.96875 C 63 95.03125 40.851562 104.0625 12.46875 104.0625 C 1.863281 104.0625 -6.945312 101.835938 -13.96875 97.390625 C -21 92.953125 -24.515625 86.578125 -24.515625 78.265625 C -24.515625 73.097656 -22.789062 68.148438 -19.34375 63.421875 C -15.90625 58.691406 -10.175781 56.328125 -2.15625 56.328125 C 4.726562 56.328125 10.03125 58.257812 13.75 62.125 C 17.476562 66 20.414062 70.515625 22.5625 75.671875 C 24.71875 80.835938 26.726562 85.351562 28.59375 89.21875 C 30.457031 93.09375 33.109375 95.03125 36.546875 95.03125 C 42.566406 95.03125 47.007812 90.226562 49.875 80.625 C 52.75 71.019531 54.1875 54.75 54.1875 31.8125 L 54.1875 -233.921875 C 54.1875 -242.234375 53.320312 -248.46875 51.59375 -252.625 C 49.875 -256.78125 46.4375 -259.644531 41.28125 -261.21875 C 36.125 -262.800781 28.382812 -263.59375 18.0625 -263.59375 C 17.488281 -263.59375 17.203125 -264.453125 17.203125 -266.171875 C 17.203125 -267.890625 17.488281 -268.75 18.0625 -268.75 C 26.945312 -268.75 36.40625 -268.53125 46.4375 -268.09375 C 56.46875 -267.664062 66.929688 -267.453125 77.828125 -267.453125 C 87.859375 -267.453125 97.101562 -267.664062 105.5625 -268.09375 C 114.019531 -268.53125 121.546875 -268.75 128.140625 -268.75 Z M 128.140625 -268.75 "/></g></g></g></svg>